<svg width="170" height="29" viewBox="0 0 170 29" fill="none" xmlns="http://www.w3.org/2000/svg">
<path d="M5.54297 20.9883V20.9062L13.6523 9.52734V6.94922H1.55859V9.97266H9.17578V10.0547L1.23047 21.3633V24H13.6758V20.9883H5.54297ZM23.918 12.2812V17.9648C23.918 19.0547 23.6602 19.8984 23.168 20.4844C22.6641 21.082 22.043 21.375 21.3164 21.375C20.5664 21.375 20.0273 21.1641 19.6992 20.7422C19.3711 20.3203 19.2188 19.5703 19.2188 18.5156V12.2812H16.0781V19.3359C16.0781 20.2148 16.1719 20.9648 16.3828 21.5977C16.5938 22.2305 16.8867 22.7344 17.2852 23.1094C17.6836 23.4844 18.1289 23.7656 18.6445 23.9414C19.1484 24.1172 19.7344 24.1992 20.3906 24.1992C21.0586 24.1992 21.6914 24.0703 22.2891 23.7891C22.8867 23.5078 23.4141 23.1094 23.8711 22.5703H23.918V24H27.0586V12.2812H23.918ZM36.8555 12.082C36.1523 12.082 35.5078 12.2578 34.8984 12.5859C34.2891 12.9141 33.7617 13.3945 33.3164 14.0039H33.2812V12.2812H30.1406V24H33.2812V18.5625C33.2812 17.6719 33.5391 16.9336 34.0664 16.3594C34.5938 15.7969 35.332 15.5039 36.2695 15.5039C36.5039 15.5039 36.7852 15.5156 37.1016 15.5391V12.0938C37.0547 12.0938 36.9727 12.082 36.8555 12.082ZM40.8516 10.6289C41.3789 10.6289 41.8359 10.4414 42.2227 10.0664C42.5977 9.69141 42.7969 9.24609 42.7969 8.70703C42.7969 8.19141 42.5977 7.73438 42.2227 7.35938C41.8359 6.98438 41.3789 6.79688 40.8516 6.79688C40.3125 6.79688 39.8438 6.98438 39.4688 7.35938C39.0938 7.73438 38.9062 8.19141 38.9062 8.70703C38.9062 9.05859 38.9883 9.38672 39.1641 9.67969C39.3281 9.97266 39.5625 10.207 39.8672 10.3711C40.1719 10.5469 40.5 10.6289 40.8516 10.6289ZM39.2812 24H42.4219V12.2812H39.2812V24ZM58.793 24H62.1914V6.94922H58.793V24ZM72.7031 12.082C71.9766 12.082 71.2852 12.2344 70.6289 12.5273C69.9727 12.8203 69.4102 13.2422 68.9414 13.793H68.9062V12.2812H65.7656V24H68.9062V18.1055C68.9062 17.0859 69.1406 16.3008 69.6211 15.7383C70.1016 15.1875 70.7461 14.9062 71.5664 14.9062C72.3281 14.9062 72.8906 15.1289 73.2656 15.5625C73.6289 16.0078 73.8164 16.7578 73.8164 17.8359V24.0117H76.957V17.0508C76.957 16.1719 76.8516 15.4102 76.6523 14.7539C76.4414 14.1094 76.1484 13.5938 75.7617 13.207C75.375 12.832 74.9297 12.5508 74.4258 12.3633C73.9219 12.1758 73.3477 12.082 72.7031 12.082ZM83.6133 24.1992C84.3281 24.1992 84.9141 24.1406 85.3711 24.0117C85.8164 23.8945 86.2734 23.707 86.7188 23.4609L85.9102 20.9531C85.3711 21.2344 84.8789 21.3633 84.4336 21.3633C84.0586 21.3633 83.8008 21.2461 83.6367 21C83.4727 20.7656 83.4023 20.3789 83.4023 19.8633V14.8828H86.5898V12.2812H83.4023V8.10938L80.2617 8.44922V12.2812H78.8789V14.8828H80.2617V20.2969C80.2617 21.5859 80.5547 22.5586 81.1523 23.2148C81.75 23.8711 82.5703 24.1992 83.6133 24.1992ZM99.2578 18.0352C99.2578 16.8984 99.0117 15.8789 98.543 14.9766C98.0625 14.0742 97.3828 13.3711 96.5156 12.8555C95.6367 12.3398 94.6289 12.082 93.5039 12.082C92.6836 12.082 91.9102 12.2344 91.1953 12.5273C90.4688 12.832 89.8594 13.2422 89.3438 13.7695C88.8281 14.2969 88.4297 14.9414 88.1367 15.6914C87.832 16.4414 87.6914 17.2617 87.6914 18.1289C87.6914 19.3242 87.9492 20.3906 88.4766 21.3164C89.0039 22.2539 89.7305 22.9688 90.6445 23.4609C91.5586 23.9531 92.5781 24.1992 93.7266 24.1992C94.8516 24.1992 95.8359 24 96.7031 23.6016C97.5586 23.2031 98.25 22.6641 98.7891 21.9844L96.75 20.0859C96.0117 20.9766 95.0742 21.4219 93.9492 21.4102C93.1992 21.4102 92.5547 21.1992 92.0273 20.8008C91.5 20.4023 91.1484 19.8633 90.9609 19.1602H99.1758C99.2227 18.9727 99.2578 18.5977 99.2578 18.0352ZM93.6094 14.8477C94.2656 14.8477 94.8164 15.0352 95.25 15.3984C95.6719 15.7617 95.9766 16.2656 96.1406 16.8984H90.9727C91.1484 16.2422 91.4648 15.7266 91.9336 15.375C92.4023 15.0234 92.9531 14.8477 93.6094 14.8477ZM108.48 12.082C107.777 12.082 107.133 12.2578 106.523 12.5859C105.914 12.9141 105.387 13.3945 104.941 14.0039H104.906V12.2812H101.766V24H104.906V18.5625C104.906 17.6719 105.164 16.9336 105.691 16.3594C106.219 15.7969 106.957 15.5039 107.895 15.5039C108.129 15.5039 108.41 15.5156 108.727 15.5391V12.0938C108.68 12.0938 108.598 12.082 108.48 12.082ZM117.703 12.082C116.977 12.082 116.285 12.2344 115.629 12.5273C114.973 12.8203 114.41 13.2422 113.941 13.793H113.906V12.2812H110.766V24H113.906V18.1055C113.906 17.0859 114.141 16.3008 114.621 15.7383C115.102 15.1875 115.746 14.9062 116.566 14.9062C117.328 14.9062 117.891 15.1289 118.266 15.5625C118.629 16.0078 118.816 16.7578 118.816 17.8359V24.0117H121.957V17.0508C121.957 16.1719 121.852 15.4102 121.652 14.7539C121.441 14.1094 121.148 13.5938 120.762 13.207C120.375 12.832 119.93 12.5508 119.426 12.3633C118.922 12.1758 118.348 12.082 117.703 12.082ZM128.754 24.1992C130.23 24.1992 131.355 23.8711 132.129 23.1914C132.902 22.5234 133.301 21.6445 133.301 20.5547C133.301 20.2734 133.277 20.0039 133.23 19.7695C133.078 18.9961 132.621 18.3633 131.871 17.8945C131.426 17.6133 130.559 17.2383 129.27 16.7578C128.648 16.5234 128.203 16.3125 127.922 16.125C127.641 15.9375 127.512 15.7266 127.512 15.4922C127.512 15.2109 127.629 15 127.863 14.8477C128.098 14.6953 128.355 14.6133 128.66 14.6133C129.105 14.6133 129.574 14.7188 130.066 14.9297C130.559 15.1406 131.016 15.4453 131.461 15.8555L132.984 13.5586C132.316 13.043 131.637 12.668 130.957 12.4336C130.266 12.1992 129.516 12.082 128.695 12.082C127.898 12.082 127.172 12.2344 126.539 12.5156C125.906 12.8086 125.402 13.2188 125.027 13.7578C124.652 14.2969 124.477 14.9062 124.477 15.5977C124.477 15.9727 124.512 16.3125 124.605 16.6172C124.688 16.9336 124.816 17.2148 124.98 17.4492C125.145 17.6953 125.332 17.918 125.543 18.1055C125.754 18.3047 126 18.4805 126.293 18.6445C126.574 18.8086 126.855 18.9375 127.137 19.0547C127.418 19.1719 127.734 19.2891 128.086 19.4062C128.637 19.5938 129.047 19.7344 129.328 19.8516C129.609 19.9688 129.82 20.0977 129.984 20.2383C130.137 20.3789 130.219 20.5312 130.219 20.707C130.219 21 130.09 21.2344 129.832 21.4102C129.574 21.5977 129.223 21.6797 128.777 21.6797C127.582 21.6797 126.504 21.2227 125.531 20.3086L124.008 22.4766C125.309 23.625 126.891 24.1992 128.754 24.1992ZM142.723 12.082C141.961 12.082 141.258 12.2227 140.602 12.4922C139.945 12.7734 139.383 13.1719 138.914 13.6992H138.867V6.32812H135.727V24H138.867V18.0586C138.867 17.0273 139.102 16.2539 139.594 15.7148C140.074 15.1758 140.742 14.9062 141.609 14.9062C142.383 14.9062 142.957 15.1289 143.332 15.5508C143.707 15.9844 143.895 16.7227 143.895 17.7539V24.0117H147.047V16.957C147.047 16.0898 146.941 15.3281 146.73 14.6953C146.52 14.0625 146.215 13.5469 145.828 13.1719C145.43 12.7969 144.984 12.5273 144.469 12.3516C143.953 12.1758 143.379 12.082 142.723 12.082ZM151.758 10.6289C152.285 10.6289 152.742 10.4414 153.129 10.0664C153.504 9.69141 153.703 9.24609 153.703 8.70703C153.703 8.19141 153.504 7.73438 153.129 7.35938C152.742 6.98438 152.285 6.79688 151.758 6.79688C151.219 6.79688 150.75 6.98438 150.375 7.35938C150 7.73438 149.812 8.19141 149.812 8.70703C149.812 9.05859 149.895 9.38672 150.07 9.67969C150.234 9.97266 150.469 10.207 150.773 10.3711C151.078 10.5469 151.406 10.6289 151.758 10.6289ZM150.188 24H153.328V12.2812H150.188V24ZM163.395 12.082C161.895 12.082 160.711 12.5977 159.844 13.6289H159.797V12.2812H156.656V28.7461H159.797V22.6875H159.844C160.676 23.6953 161.824 24.1992 163.301 24.1992C164.098 24.1992 164.848 24.0586 165.539 23.7656C166.23 23.4844 166.828 23.0742 167.32 22.5586C167.812 22.043 168.211 21.3984 168.492 20.6484C168.773 19.8984 168.914 19.0664 168.914 18.1758C168.914 17.4727 168.82 16.8164 168.645 16.1836C168.457 15.5508 168.199 14.9883 167.871 14.4961C167.543 14.0039 167.145 13.5703 166.699 13.207C166.242 12.8438 165.727 12.5625 165.164 12.375C164.602 12.1875 164.004 12.082 163.395 12.082ZM162.727 21.3867C162.152 21.3867 161.637 21.2578 161.168 21C160.699 20.7422 160.336 20.3555 160.066 19.8633C159.797 19.3711 159.668 18.8203 159.668 18.1875C159.668 17.7305 159.738 17.2969 159.891 16.8867C160.043 16.4883 160.254 16.1367 160.523 15.8438C160.781 15.5625 161.109 15.3281 161.484 15.1641C161.859 15 162.281 14.9062 162.727 14.9062C163.582 14.9062 164.297 15.2109 164.871 15.8086C165.434 16.418 165.727 17.2031 165.727 18.1875C165.727 19.1367 165.445 19.9102 164.883 20.4961C164.32 21.0938 163.605 21.3867 162.727 21.3867Z" fill="black"/>
<path d="M50.9512 24.3652C51.918 24.3652 52.7559 24.0215 53.4434 23.334C54.1309 22.6465 54.4961 21.8301 54.4961 20.8633C54.4961 19.918 54.1309 19.0801 53.4434 18.3926C52.7559 17.7051 51.918 17.3398 50.9512 17.3398C49.9414 17.3398 49.082 17.6836 48.3945 18.3711C47.707 19.0586 47.3633 19.8965 47.3633 20.8633C47.3633 21.8516 47.707 22.668 48.3945 23.3555C49.082 24.043 49.9414 24.3652 50.9512 24.3652Z" fill="#E7332B"/>
</svg>
